<?xml version="1.0" encoding="UTF-8"?>
<svg version="1.1" viewBox="0 0 143 157" xmlns="http://www.w3.org/2000/svg" xmlns:xlink="http://www.w3.org/1999/xlink">
    <title>42-logo</title>
    <desc>Created with Sketch.</desc>
    <defs>
        <polygon id="b" points="5.2206e-4 4.0152 100.47 4.0152 100.47 157.35 5.2206e-4 157.35" />
    </defs>
    <g fill="none" fill-rule="evenodd">
        <g fill-rule="evenodd">
            <path
                d="m1.2175 71.317c0-39.388 31.727-71.317 70.866-71.317 39.139 0 70.866 31.929 70.866 71.317 0 39.387-31.727 71.317-70.866 71.317-39.139 0-70.866-31.93-70.866-71.317"
                fill="#15468A" />
            <path
                d="m8.2815 71.35c0-35.48 28.579-64.242 63.834-64.242 35.255 0 63.834 28.762 63.834 64.242 0 35.479-28.579 64.241-63.834 64.241-35.255 0-63.834-28.762-63.834-64.241"
                fill="#4EC0E3" />
            <path
                d="m59.738 42.968l-40.174 41.435c-2.292 2.3076-0.527 6.0734 2.443 6.0734h29.115v9.3784h14.638v-9.3784h7.318v-14.73h-7.318v-30.262c0-3.2687-3.836-4.7158-6.022-2.5169"
                fill="#FFFFFE" />
            <path
                d="m120.18 99.764h-44.255v-31.983c0-1.9483 1.614-3.5293 3.614-3.5525h25.661v-7.108h-14.434l-14.125-14.215h39.538c2.006 0 3.634 1.5679 3.659 3.5102v28.469c0 1.9483-1.614 3.5293-3.614 3.5535l-25.617 0.0040254v7.107h29.448l0.125 14.215z"
                fill="#FFFFFE" />
            <mask id="a" fill="white">
                <use xlink:href="#b" />
            </mask>
            <polyline points="44.084 68.946 54.539 68.947 54.54 79.47 44.084 79.47 44.084 68.946" fill="#4EC0E3"
                mask="url(#a)" />
            <path
                d="m0.66752 5.537c-4.5 4.5277 14.5 35.222 34.5 56.356-26.641-42.799-35.891-63.429-5.352-47.298-6-4.5287-23.898-14.341-29.148-9.0573"
                fill="#15468A" mask="url(#a)" />
            <path
                d="m99.5 155.98c5.527-8.3176-13.499-34.215-33.5-55.348 31.527 49.043 31.203 54.354 0.828 41.523 6.75 4.4029 28.545 20.039 32.672 13.826"
                fill="#15468A" mask="url(#a)" />
        </g>
    </g>
</svg>